name C:\Users\Nicos\Documents\OpenSimProjects\SprintingProject\Study1\PredictiveResults\IC_pred_Sprinting_optimum_27-October-2023__18-13-56___HTD_Plus_2_p02_maxVel_01.mot
datacolumns 38
datarows 10
range 0.21323663 0.22307328
endheader
                time	/jointset/ground_pelvis/pelvis_tilt/value	/jointset/ground_pelvis/pelvis_list/value	/jointset/ground_pelvis/pelvis_rotation/value	/jointset/ground_pelvis/pelvis_tx/value	/jointset/ground_pelvis/pelvis_ty/value	/jointset/ground_pelvis/pelvis_tz/value	/jointset/hip_r/hip_flexion_r/value	/jointset/hip_r/hip_adduction_r/value	/jointset/hip_r/hip_rotation_r/value	/jointset/knee_r/knee_angle_r/value	/jointset/ankle_r/ankle_angle_r/value	/jointset/subtalar_r/subtalar_angle_r/value	/jointset/mtp_r/mtp_angle_r/value	/jointset/hip_l/hip_flexion_l/value	/jointset/hip_l/hip_adduction_l/value	/jointset/hip_l/hip_rotation_l/value	/jointset/knee_l/knee_angle_l/value	/jointset/ankle_l/ankle_angle_l/value	/jointset/subtalar_l/subtalar_angle_l/value	/jointset/mtp_l/mtp_angle_l/value	/jointset/back/lumbar_extension/value	/jointset/back/lumbar_bending/value	/jointset/back/lumbar_rotation/value	/jointset/acromial_r/arm_flex_r/value	/jointset/acromial_r/arm_add_r/value	/jointset/acromial_r/arm_rot_r/value	/jointset/elbow_r/elbow_flex_r/value	/jointset/radioulnar_r/pro_sup_r/value	/jointset/radius_hand_r/wrist_flex_r/value	/jointset/radius_hand_r/wrist_dev_r/value	/jointset/acromial_l/arm_flex_l/value	/jointset/acromial_l/arm_add_l/value	/jointset/acromial_l/arm_rot_l/value	/jointset/elbow_l/elbow_flex_l/value	/jointset/radioulnar_l/pro_sup_l/value	/jointset/radius_hand_l/wrist_flex_l/value	/jointset/radius_hand_l/wrist_dev_l/value	
          0.21323663	         -3.66786949	          6.10434168	        -13.75115254	          1.85952232	          0.99348642	          0.31822211	         -3.31059771	        -13.52078092	         10.35893234	        -85.60335776	        -24.37167356	        -12.80456088	         -3.22050135	         61.03513270	         -9.02039888	         -4.70862284	        -49.34334908	        -27.00761626	        -28.00482520	         14.36350958	        -20.24834406	        -10.77188240	         10.91346438	         55.83505274	        -17.24289445	         -0.15534403	        119.36934773	         72.84324698	          0.80041915	          6.46074197	        -58.79347261	        -19.33885977	        -14.99999085	         68.70392034	         54.54119431	        -21.10466092	          5.98930476	
          0.21471961	         -3.59784018	          6.13900069	        -13.53219979	          1.87688969	          0.99433369	          0.31804361	         -2.98917893	        -13.48950090	         10.28825299	        -86.55559591	        -24.00271477	        -12.92682865	         -4.05639697	         60.25857255	         -8.60649889	         -4.58020262	        -48.13026683	        -27.42109630	        -28.32820865	         13.82455074	        -20.39729013	        -10.88183405	         10.85654984	         54.08486716	        -17.90310925	         -0.29173474	        117.95598979	         72.29532755	          0.95452655	          6.41524706	        -57.89988931	        -19.67584756	        -14.99957979	         68.94577018	         55.03885418	        -21.36364657	          5.94361170	
          0.21471961	         -3.59784018	          6.13900069	        -13.53219979	          1.87688969	          0.99433369	          0.31804361	         -2.98917893	        -13.48950090	         10.28825299	        -86.55559591	        -24.00271477	        -12.92682865	         -4.05639697	         60.25857255	         -8.60649889	         -4.58020262	        -48.13026683	        -27.42109630	        -28.32820865	         13.82455074	        -20.39729013	        -10.88183405	         10.85654984	         54.08486716	        -17.90310925	         -0.29173474	        117.95598979	         72.29532755	          0.95452655	          6.41524706	        -57.89988931	        -19.67584756	        -14.99957979	         68.94577018	         55.03885418	        -21.36364657	          5.94361170	
          0.21536724	         -3.57312657	          6.15243730	        -13.42916174	          1.88448341	          0.99469145	          0.31795267	         -2.84115849	        -13.47229416	         10.25145132	        -86.97117972	        -23.83880608	        -12.98382527	         -4.41379338	         59.92478583	         -8.41996291	         -4.51108359	        -47.60959300	        -27.59490566	        -28.47124567	         13.55672353	        -20.45610098	        -10.92395837	         10.82989192	         53.31245045	        -18.19137366	         -0.36724160	        117.33147945	         72.05008020	          1.01874082	          6.39528757	        -57.50209011	        -19.82467367	        -14.99984899	         69.06431224	         55.25766377	        -21.47610256	          5.92366012	
          0.21741346	         -3.51376788	          6.18863486	        -13.07712136	          1.90851168	          0.99577741	          0.31761487	         -2.34662793	        -13.40715259	         10.11375373	        -88.28296086	        -23.31119216	        -13.17523894	         -5.50241988	         58.88485860	         -7.81092149	         -4.24612271	        -45.99859842	        -28.11715995	        -28.93477955	         12.57865908	        -20.62206525	        -11.03608427	         10.74149042	         50.84434212	        -19.10377338	         -0.67063185	        115.33338177	         71.24913420	          1.20930650	          6.33219625	        -56.21369487	        -20.30009121	        -14.99997922	         69.49612001	         55.95470624	        -21.82757284	          5.86058080	
          0.21889645	         -3.48622613	          6.20999527	        -12.79998207	          1.92595760	          0.99652438	          0.31732442	         -1.96357731	        -13.35271751	          9.99651574	        -89.23255604	        -22.92113327	        -13.32121399	         -6.24570728	         58.14105082	         -7.35417099	         -4.01586323	        -44.86080945	        -28.47200415	        -29.28440402	         11.74464431	        -20.72567378	        -11.09978070	         10.67569489	         49.03242394	        -19.76293890	         -0.95587410	        113.86508863	         70.64792732	          1.33571604	          6.28648817	        -55.24439457	        -20.64608406	        -14.99861113	         69.85179702	         56.46595967	        -22.07735029	          5.81489936	
          0.21889645	         -3.48622613	          6.20999527	        -12.79998207	          1.92595760	          0.99652438	          0.31732442	         -1.96357731	        -13.35271751	          9.99651574	        -89.23255604	        -22.92113327	        -13.32121399	         -6.24570728	         58.14105082	         -7.35417099	         -4.01586323	        -44.86080945	        -28.47200415	        -29.28440402	         11.74464431	        -20.72567378	        -11.09978070	         10.67569489	         49.03242394	        -19.76293890	         -0.95587410	        113.86508863	         70.64792732	          1.33571604	          6.28648817	        -55.24439457	        -20.64608406	        -14.99861113	         69.85179702	         56.46595967	        -22.07735029	          5.81489936	
          0.21954407	         -3.47774724	          6.21829457	        -12.67393709	          1.93358406	          0.99684048	          0.31718616	         -1.78996722	        -13.32775888	          9.94145528	        -89.64698674	        -22.74916370	        -13.38599909	         -6.55641918	         57.81786669	         -7.15152464	         -3.90676325	        -44.37113816	        -28.62123127	        -29.44116520	         11.34831530	        -20.76702072	        -11.12352531	         10.64704954	         48.23579770	        -20.04906882	         -1.09884923	        113.21945462	         70.38095870	          1.38783429	          6.26652432	        -54.81021498	        -20.79672621	        -14.99717750	         70.01512209	         56.69098022	        -22.18478554	          5.79495160	
          0.22159029	         -3.46384655	          6.24281516	        -12.25855231	          1.95771012	          0.99779992	          0.31670814	         -1.21570796	        -13.24794001	          9.75511680	        -90.95573866	        -22.20070924	        -13.59068318	         -7.47525058	         56.79979047	         -6.50114274	         -3.53527937	        -42.84845755	        -29.07486436	        -29.95490201	          9.97927051	        -20.88280788	        -11.18579777	         10.55795356	         45.69894021	        -20.93423152	         -1.63452154	        111.16447000	         69.52474177	          1.54018141	          6.20342883	        -53.38825992	        -21.26814402	        -14.98969833	         70.54489525	         57.40867411	        -22.51638985	          5.73187563	
          0.22307328	         -3.46480171	          6.25940631	        -11.94274240	          1.97522142	          0.99845736	          0.31632719	         -0.77571897	        -13.19005595	          9.61016243	        -91.90383719	        -21.79886103	        -13.73672098	         -8.07488298	         56.06338691	         -6.02287936	         -3.24500772	        -41.76804826	        -29.38667410	        -30.33687423	          8.89797803	        -20.95366505	        -11.22031399	         10.49564187	         43.84280750	        -21.54729972	         -2.11315994	        109.66386474	         68.89642301	          1.63889205	          6.15772136	        -52.30967606	        -21.60465034	        -14.98335511	         70.94341863	         57.93529565	        -22.74802116	          5.68620000	
